# xmcd
#
# Track frame offsets: 
#        150
#        12424
#        25651
#        33246
#        45806
#        69816
#        80285
#        88633
#        107101
#        114926
#        129342
#        141046
#        152088
#        163263
#        171495
#        185548
#
# Disc length: 2605 seconds
#
# Revision: 1
# Processed by: cddbd v1.5.2PL0 Copyright (c) Steve Scherf et al.
# Submitted via: ExactAudioCopy v0.99pb3
#
DISCID=be0a2b10
DTITLE=Frauenkompott - faltenfrei
DYEAR=1900
DGENRE=Alternative
TTITLE0=tratsch-polka
TTITLE1=neue männer braucht das land
TTITLE2=wie luastig mia weiba
TTITLE3=diskriminierung
TTITLE4=heilfasting
TTITLE5=waunn oane amoi heirat
TTITLE6=vorm annamirl sein fenster
TTITLE7=d'mutta gottes im 54er jahr
TTITLE8=do is amoi a bauer gwen
TTITLE9=dorferneuerung
TTITLE10=ja, natürlich
TTITLE11=wer an mau hat
TTITLE12=liebe über alles
TTITLE13=i bin a kniera
TTITLE14=wiener charme
TTITLE15=de liab is a bach
EXTD=
EXTT0=
EXTT1=
EXTT2=
EXTT3=
EXTT4=
EXTT5=
EXTT6=
EXTT7=
EXTT8=
EXTT9=
EXTT10=
EXTT11=
EXTT12=
EXTT13=
EXTT14=
EXTT15=
PLAYORDER=
